<svg width="32" height="32" viewBox="0 0 32 32" fill="none" xmlns="http://www.w3.org/2000/svg">
<circle r="15.5" transform="matrix(-1 0 0 1 16 16)" fill="white" stroke="#E5E5E5"/>
<path d="M22 15.5C22.2761 15.5 22.5 15.7239 22.5 16C22.5 16.2761 22.2761 16.5 22 16.5V15.5ZM10.6464 16.3536C10.4512 16.1583 10.4512 15.8417 10.6464 15.6464L13.8284 12.4645C14.0237 12.2692 14.3403 12.2692 14.5355 12.4645C14.7308 12.6597 14.7308 12.9763 14.5355 13.1716L11.7071 16L14.5355 18.8284C14.7308 19.0237 14.7308 19.3403 14.5355 19.5355C14.3403 19.7308 14.0237 19.7308 13.8284 19.5355L10.6464 16.3536ZM22 16.5L11 16.5V15.5L22 15.5V16.5Z" fill="#6E6E6E"/>
</svg>
