<svg width="9" height="5" viewBox="0 0 9 5" fill="none" xmlns="http://www.w3.org/2000/svg">
<path fill-rule="evenodd" clip-rule="evenodd" d="M0.0904829 0.0904827C0.119092 0.0618009 0.153079 0.039045 0.190497 0.0235184C0.227914 0.00799189 0.268027 0 0.308538 0C0.349049 0 0.389162 0.00799189 0.42658 0.0235184C0.463997 0.039045 0.497984 0.0618009 0.526593 0.0904827L4.00439 3.56889L7.48218 0.0904827C7.51082 0.0618473 7.54481 0.0391324 7.58223 0.023635C7.61964 0.00813767 7.65974 0.000161252 7.70024 0.000161252C7.74073 0.000161252 7.78083 0.00813767 7.81825 0.023635C7.85566 0.0391324 7.88966 0.0618473 7.91829 0.0904827C7.94693 0.119118 7.96964 0.153113 7.98514 0.190527C8.00064 0.227941 8.00861 0.268041 8.00861 0.308538C8.00861 0.349035 8.00064 0.389135 7.98514 0.426549C7.96964 0.463963 7.94693 0.497958 7.91829 0.526593L4.22244 4.22244C4.19383 4.25113 4.15985 4.27388 4.12243 4.28941C4.08501 4.30493 4.0449 4.31293 4.00439 4.31293C3.96388 4.31293 3.92376 4.30493 3.88635 4.28941C3.84893 4.27388 3.81494 4.25113 3.78633 4.22244L0.0904829 0.526593C0.0618011 0.497984 0.0390453 0.463997 0.0235187 0.42658C0.00799219 0.389162 0 0.349049 0 0.308538C0 0.268027 0.00799219 0.227914 0.0235187 0.190496C0.0390453 0.153079 0.0618011 0.119092 0.0904829 0.0904827Z" fill="#353535"/>
</svg>
