<svg width="32" height="32" viewBox="0 0 32 32" fill="none" xmlns="http://www.w3.org/2000/svg">
<circle cx="16" cy="16" r="15.5" fill="white" stroke="#E5E5E5"/>
<path d="M10 15.5C9.72386 15.5 9.5 15.7239 9.5 16C9.5 16.2761 9.72386 16.5 10 16.5V15.5ZM21.3536 16.3536C21.5488 16.1583 21.5488 15.8417 21.3536 15.6464L18.1716 12.4645C17.9763 12.2692 17.6597 12.2692 17.4645 12.4645C17.2692 12.6597 17.2692 12.9763 17.4645 13.1716L20.2929 16L17.4645 18.8284C17.2692 19.0237 17.2692 19.3403 17.4645 19.5355C17.6597 19.7308 17.9763 19.7308 18.1716 19.5355L21.3536 16.3536ZM10 16.5L21 16.5V15.5L10 15.5V16.5Z" fill="#6E6E6E"/>
</svg>
