<svg width="8" height="5" viewBox="0 0 8 5" fill="none" xmlns="http://www.w3.org/2000/svg">
<path d="M3.15334 0.213281L0.155844 3.63953C-0.197906 4.04266 0.0895942 4.67578 0.626469 4.67578H6.62147C6.74162 4.67588 6.85926 4.64135 6.96029 4.57632C7.06132 4.51128 7.14146 4.41851 7.19112 4.3091C7.24078 4.19969 7.25785 4.07828 7.24029 3.95942C7.22273 3.84056 7.17127 3.72928 7.09209 3.63891L4.09459 0.213906C4.03593 0.146775 3.96358 0.0929713 3.88241 0.0561061C3.80124 0.0192413 3.71312 0.000168324 3.62397 0.000168324C3.53482 0.000168324 3.4467 0.0192413 3.36553 0.0561061C3.28435 0.0929713 3.21201 0.146775 3.15334 0.213906V0.213281Z" fill="white"/>
</svg>
