<svg width="11" height="11" viewBox="0 0 11 11" fill="none" xmlns="http://www.w3.org/2000/svg">
<path d="M10.0829 5.80564C10.0427 5.80588 10.0029 5.79817 9.96563 5.78296C9.9284 5.76776 9.89454 5.74535 9.86599 5.71703L5.4996 1.34759L1.13321 5.71703C1.07476 5.76709 0.999569 5.79325 0.922668 5.79028C0.845767 5.78731 0.772819 5.75543 0.718402 5.70101C0.663984 5.64659 0.632104 5.57365 0.629134 5.49674C0.626164 5.41984 0.652321 5.34465 0.702379 5.2862L5.28571 0.702867C5.34296 0.645957 5.4204 0.614014 5.50113 0.614014C5.58185 0.614014 5.65929 0.645957 5.71654 0.702867L10.2999 5.2862C10.3419 5.32909 10.3704 5.38343 10.3817 5.44242C10.3931 5.5014 10.3868 5.56242 10.3636 5.61785C10.3405 5.67327 10.3015 5.72065 10.2516 5.75405C10.2017 5.78745 10.143 5.8054 10.0829 5.80564Z" fill="#E5E5E5"/>
<path d="M5.49967 2.38037L1.83301 6.05926V9.77787C1.83301 9.93995 1.89739 10.0954 2.012 10.21C2.1266 10.3246 2.28204 10.389 2.44412 10.389H4.58301V7.33343H6.41634V10.389H8.55523C8.71731 10.389 8.87274 10.3246 8.98735 10.21C9.10196 10.0954 9.16634 9.93995 9.16634 9.77787V6.03787L5.49967 2.38037Z" fill="#E5E5E5"/>
</svg>
