<svg width="12" height="12" viewBox="0 0 12 12" fill="none" xmlns="http://www.w3.org/2000/svg">
<path d="M0.66 8.25333C1.48 8.25333 2.27333 8.12 3.01333 7.88C3.12926 7.8407 3.25392 7.83487 3.37301 7.86317C3.4921 7.89147 3.60081 7.95275 3.68667 8.04L4.73333 9.35333C6.62 8.45333 8.38667 6.75333 9.32667 4.8L8.02667 3.69333C7.84667 3.50667 7.79333 3.24667 7.86667 3.01333C8.11333 2.27333 8.24 1.48 8.24 0.66C8.24 0.3 8.54 0 8.9 0H11.2067C11.5667 0 12 0.16 12 0.66C12 6.85333 6.84667 12 0.66 12C0.186666 12 0 11.58 0 11.2133V8.91333C0 8.55333 0.299999 8.25333 0.66 8.25333Z" fill="#6E6E6E"/>
</svg>
