<svg width="16" height="14" viewBox="0 0 16 14" fill="none" xmlns="http://www.w3.org/2000/svg">
<path d="M15.5 2.99995V3.49995C15.5 3.56625 15.4737 3.62984 15.4268 3.67672C15.3799 3.72361 15.3163 3.74995 15.25 3.74995H14.5V4.12495C14.5 4.33204 14.3321 4.49995 14.125 4.49995H1.875C1.66791 4.49995 1.5 4.33204 1.5 4.12495V3.74995H0.75C0.683696 3.74995 0.620107 3.72361 0.573223 3.67672C0.526339 3.62984 0.5 3.56625 0.5 3.49995V2.99995C0.5 2.95049 0.514671 2.90214 0.542156 2.86102C0.569641 2.8199 0.608706 2.78786 0.654406 2.76895L7.90441 0.0189474C7.96562 -0.0063972 8.03438 -0.0063972 8.09559 0.0189474L15.3456 2.76895C15.3913 2.78786 15.4304 2.8199 15.4578 2.86102C15.4853 2.90214 15.5 2.95049 15.5 2.99995ZM14.75 12.4999H1.25C0.835781 12.4999 0.5 12.8357 0.5 13.2499V13.7499C0.5 13.8163 0.526339 13.8798 0.573223 13.9267C0.620107 13.9736 0.683696 13.9999 0.75 13.9999H15.25C15.3163 13.9999 15.3799 13.9736 15.4268 13.9267C15.4737 13.8798 15.5 13.8163 15.5 13.7499V13.2499C15.5 12.8357 15.1642 12.4999 14.75 12.4999ZM3 4.99995V10.9999H1.875C1.66791 10.9999 1.5 11.1679 1.5 11.3749V11.9999H14.5V11.3749C14.5 11.1679 14.3321 10.9999 14.125 10.9999H13V4.99995H11V10.9999H9V4.99995H7V10.9999H5V4.99995H3Z" fill="#6E6E6E"/>
</svg>
